fd_7_states
version=1
nRows=35
nColumns=17
inDegrees=yes

# SIMM Motion File Header:
name fd_7_states
datacolumns 17
datarows 35
otherdata 1
range 0.697267 0.747457
endheader
time	/jointset/r_shoulder/r_shoulder_elev/value	/jointset/r_shoulder/r_shoulder_elev/speed	/jointset/r_elbow/r_elbow_flex/value	/jointset/r_elbow/r_elbow_flex/speed	/forceset/TRIlong/activation	/forceset/TRIlong/fiber_length	/forceset/TRIlat/activation	/forceset/TRIlat/fiber_length	/forceset/TRImed/activation	/forceset/TRImed/fiber_length	/forceset/BIClong/activation	/forceset/BIClong/fiber_length	/forceset/BICshort/activation	/forceset/BICshort/fiber_length	/forceset/BRA/activation	/forceset/BRA/fiber_length
      0.697267	      0.000155	      0.087160	     41.214724	     92.787110	      0.020000	      0.152642	      0.099315	      0.085946	      0.098634	      0.081020	      0.412058	      0.131695	      0.041097	      0.132989	      0.020000	      0.083801
      0.699770	      0.000387	      0.095394	     41.448211	     93.786060	      0.020000	      0.152733	      0.099720	      0.086035	      0.099033	      0.081109	      0.414908	      0.131554	      0.041012	      0.132868	      0.020000	      0.083750
      0.700282	      0.000436	      0.095131	     41.496253	     93.997511	      0.020000	      0.152751	      0.099850	      0.086053	      0.099152	      0.081127	      0.415565	      0.131525	      0.040994	      0.132843	      0.020000	      0.083740
      0.700984	      0.000502	      0.093917	     41.562374	     94.291048	      0.020000	      0.152777	      0.100325	      0.086078	      0.099560	      0.081152	      0.417160	      0.131486	      0.040966	      0.132808	      0.020000	      0.083725
      0.701946	      0.000591	      0.092253	     41.653294	     94.694714	      0.020000	      0.152812	      0.100904	      0.086112	      0.100058	      0.081186	      0.419202	      0.131431	      0.040927	      0.132761	      0.020000	      0.083706
      0.704829	      0.000859	      0.095402	     41.927995	     95.892019	      0.020000	      0.152919	      0.102203	      0.086213	      0.101173	      0.081288	      0.424351	      0.131263	      0.040815	      0.132617	      0.020000	      0.083647
      0.707712	      0.001147	      0.104568	     42.206139	     97.091021	      0.020000	      0.153026	      0.103036	      0.086316	      0.101889	      0.081392	      0.428322	      0.131093	      0.040707	      0.132471	      0.020000	      0.083587
      0.709502	      0.001337	      0.106244	     42.380692	     97.857087	      0.020000	      0.153094	      0.103396	      0.086382	      0.102197	      0.081458	      0.430321	      0.130987	      0.040642	      0.132379	      0.020000	      0.083549
      0.710620	      0.001455	      0.104015	     42.490319	     98.347916	      0.020000	      0.153136	      0.103732	      0.086423	      0.102549	      0.081500	      0.431789	      0.130921	      0.040635	      0.132321	      0.020000	      0.083525
      0.711737	      0.001569	      0.100704	     42.600498	     98.844044	      0.020000	      0.153179	      0.104378	      0.086465	      0.103301	      0.081541	      0.434001	      0.130854	      0.040739	      0.132262	      0.020000	      0.083502
      0.714537	      0.001849	      0.102200	     42.878932	    100.067596	      0.020000	      0.153287	      0.105585	      0.086567	      0.104703	      0.081643	      0.438664	      0.130684	      0.040926	      0.132112	      0.020000	      0.083442
      0.717336	      0.002152	      0.115086	     43.160754	    101.271874	      0.020000	      0.153395	      0.106372	      0.086672	      0.105617	      0.081748	      0.442306	      0.130511	      0.041039	      0.131958	      0.020000	      0.083381
      0.719686	      0.002433	      0.123021	     43.399878	    102.301275	      0.020000	      0.153487	      0.106817	      0.086763	      0.106133	      0.081837	      0.444745	      0.130366	      0.041099	      0.131826	      0.020000	      0.083330
      0.720278	      0.002506	      0.123536	     43.460563	    102.566489	      0.020000	      0.153511	      0.106964	      0.086786	      0.106293	      0.081860	      0.445434	      0.130329	      0.041105	      0.131792	      0.020000	      0.083317
      0.720871	      0.002579	      0.123569	     43.521406	    102.833588	      0.020000	      0.153534	      0.107374	      0.086809	      0.106711	      0.081883	      0.446830	      0.130292	      0.041081	      0.131758	      0.020000	      0.083303
      0.721960	      0.002714	      0.124476	     43.633727	    103.323668	      0.020000	      0.153578	      0.108042	      0.086850	      0.107391	      0.081925	      0.449221	      0.130223	      0.041037	      0.131696	      0.020000	      0.083279
      0.724823	      0.003088	      0.139678	     43.931315	    104.583235	      0.020000	      0.153692	      0.109349	      0.086959	      0.108722	      0.082034	      0.454517	      0.130039	      0.040926	      0.131530	      0.020000	      0.083215
      0.727685	      0.003522	      0.163645	     44.232482	    105.834009	      0.020000	      0.153808	      0.110196	      0.087071	      0.109584	      0.082146	      0.458648	      0.129852	      0.040819	      0.131361	      0.020000	      0.083151
      0.729156	      0.003770	      0.172942	     44.388652	    106.492432	      0.020000	      0.153868	      0.110508	      0.087130	      0.109902	      0.082205	      0.460407	      0.129756	      0.040765	      0.131273	      0.020000	      0.083117
      0.729857	      0.003892	      0.175785	     44.463368	    106.812146	      0.020000	      0.153897	      0.110634	      0.087158	      0.110030	      0.082233	      0.461170	      0.129709	      0.040740	      0.131231	      0.020000	      0.083101
      0.730002	      0.003918	      0.176221	     44.478844	    106.878804	      0.020000	      0.153903	      0.110661	      0.087164	      0.110056	      0.082239	      0.461323	      0.129700	      0.040740	      0.131223	      0.020000	      0.083098
      0.730082	      0.003932	      0.176440	     44.487396	    106.915705	      0.020000	      0.153906	      0.110815	      0.087167	      0.110148	      0.082242	      0.461404	      0.129695	      0.041557	      0.131218	      0.020000	      0.083096
      0.730162	      0.003946	      0.176646	     44.495952	    106.952654	      0.020000	      0.153909	      0.110993	      0.087170	      0.110255	      0.082245	      0.461484	      0.129689	      0.042520	      0.131213	      0.020000	      0.083094
      0.730562	      0.004017	      0.177632	     44.538772	    107.137703	      0.020000	      0.153926	      0.111851	      0.087186	      0.110767	      0.082261	      0.461878	      0.129663	      0.047101	      0.131184	      0.020000	      0.083085
      0.732562	      0.004382	      0.189405	     44.753977	    108.047811	      0.020000	      0.154008	      0.115431	      0.087259	      0.112906	      0.082338	      0.463658	      0.129531	      0.065255	      0.130990	      0.020000	      0.083039
      0.734562	      0.004785	      0.215145	     44.970968	    108.926930	      0.020000	      0.154091	      0.118072	      0.087330	      0.114486	      0.082414	      0.465161	      0.129398	      0.077746	      0.130758	      0.020000	      0.082993
      0.737392	      0.005447	      0.249549	     45.281020	    110.196809	      0.020000	      0.154210	      0.120683	      0.087435	      0.116047	      0.082526	      0.466898	      0.129210	      0.089402	      0.130422	      0.020000	      0.082926
      0.739179	      0.005899	      0.253071	     45.478638	    111.063879	      0.020000	      0.154286	      0.121847	      0.087504	      0.116742	      0.082598	      0.467800	      0.129090	      0.094383	      0.130218	      0.020000	      0.082883
      0.739825	      0.006061	      0.249023	     45.550527	    111.395287	      0.020000	      0.154313	      0.122198	      0.087530	      0.116951	      0.082625	      0.468094	      0.129047	      0.095858	      0.130147	      0.020000	      0.082868
      0.740072	      0.006122	      0.246646	     45.578060	    111.524658	      0.020000	      0.154324	      0.122340	      0.087540	      0.117053	      0.082635	      0.468265	      0.129030	      0.096271	      0.130119	      0.020000	      0.082862
      0.740319	      0.006183	      0.243824	     45.605626	    111.655471	      0.020000	      0.154335	      0.122609	      0.087550	      0.117369	      0.082645	      0.468943	      0.129014	      0.096006	      0.130093	      0.020000	      0.082856
      0.740566	      0.006243	      0.240660	     45.633224	    111.787419	      0.020000	      0.154345	      0.122879	      0.087560	      0.117691	      0.082655	      0.469647	      0.128997	      0.095721	      0.130067	      0.020000	      0.082850
      0.741801	      0.006529	      0.222932	     45.771707	    112.454606	      0.020000	      0.154398	      0.124090	      0.087608	      0.119133	      0.082704	      0.472950	      0.128912	      0.094312	      0.129942	      0.020000	      0.082820
      0.744629	      0.007111	      0.192510	     46.091863	    113.963651	      0.020000	      0.154520	      0.126156	      0.087722	      0.121585	      0.082817	      0.479319	      0.128713	      0.091205	      0.129690	      0.020000	      0.082750
      0.747457	      0.007637	      0.182424	     46.416221	    115.429385	      0.020000	      0.154644	      0.127522	      0.087839	      0.123198	      0.082933	      0.484333	      0.128509	      0.088257	      0.129468	      0.020000	      0.082678
